<svg width="1000" height="1000" viewBox="0 0 1000 1000" fill="none" xmlns="http://www.w3.org/2000/svg">
<path d="M375.8 663.8C341.6 687.8 314 701.6 293 705.2C281 707.6 272.3 706.4 266.9 701.6C261.5 696.8 258.8 686.9 258.8 671.9C258.8 643.7 267.5 616.4 284.9 590C302.9 563.6 326.9 540.8 356.9 521.6C360.5 570.8 366.8 618.2 375.8 663.8Z" fill="#D9D9D9"/>
<path d="M517.1 517.1C506.3 532.7 494.9 547.4 482.9 561.2C479.3 532.4 476.6 503.3 474.8 473.9C486.8 471.5 498.8 469.7 510.8 468.5C523.4 467.3 536.3 466.7 549.5 466.7C539.3 484.1 528.5 500.9 517.1 517.1Z" fill="#D9D9D9"/>
<path fill-rule="evenodd" clip-rule="evenodd" d="M500 1000C776.142 1000 1000 776.142 1000 500C1000 223.858 776.142 0 500 0C223.858 0 0 223.858 0 500C0 776.142 223.858 1000 500 1000ZM546.8 838.4C556.4 860.6 562.7 879.5 565.7 895.1C626.3 887.3 678.5 870.8 722.3 845.6C766.1 821 800 788.3 824 747.5C848 706.7 860 659.3 860 605.3C860 559.1 847.4 517.7 822.2 481.1C797 444.5 761.9 416 716.9 395.6C727.1 374 736.1 351.5 743.9 328.1L623.3 295.7C619.7 307.7 615.8 319.4 611.6 330.8C608 342.2 604.1 353.6 599.9 365C583.7 363.2 567.5 362.3 551.3 362.3C538.1 362.3 524.9 362.9 511.7 364.1C498.5 365.3 485.6 366.8 473 368.6C473.6 356.6 474.2 344.9 474.8 333.5C475.4 321.5 476 309.8 476.6 298.4C524.6 293.6 570.8 287.3 615.2 279.5C659.6 271.1 696.8 262.1 726.8 252.5L716 137.3C687.8 148.1 653.6 157.4 613.4 165.2C573.8 173 532.7 179.3 490.1 184.1C491.9 170.9 494 158 496.4 145.4C499.4 132.2 502.1 119.3 504.5 106.7L382.1 84.2C379.1 101 376.1 118.7 373.1 137.3C370.7 155.3 368 174.2 365 194C329.6 195.2 296 195.5 264.2 194.9C232.4 193.7 205.1 191.6 182.3 188.6L190.4 308.3C209.6 310.7 233.6 311.9 262.4 311.9C291.2 311.9 322.1 310.7 355.1 308.3C353.3 339.5 352.4 371.3 352.4 403.7C310.4 422.3 272.9 446.3 239.9 475.7C207.5 505.1 182 538.7 163.4 576.5C144.8 613.7 135.5 654.2 135.5 698C135.5 738.8 145.1 769.7 164.3 790.7C183.5 811.7 204.5 823.7 227.3 826.7C256.1 830.9 285.8 829.1 316.4 821.3C347 812.9 377.6 799.7 408.2 781.7L413.6 796.1L420.8 810.5C429.2 804.5 440 798.2 453.2 791.6C467 784.4 481.4 777.5 496.4 770.9C511.4 764.3 524.6 759.5 536 756.5C531.8 747.5 527.9 738.2 524.3 728.6C520.7 718.4 517.4 708.5 514.4 698.9C542.6 671.9 569.6 641.3 595.4 607.1C621.2 572.9 645.2 536 667.4 496.4C705.8 521.6 725 557.3 725 603.5C725 651.5 708.2 691.1 674.6 722.3C641.6 753.5 588.5 773.6 515.3 782.6C527.3 797.6 537.8 816.2 546.8 838.4Z" fill="#D9D9D9"/>
</svg>
