<svg width="193" height="234" viewBox="0 0 193 234" fill="none" xmlns="http://www.w3.org/2000/svg">
<path d="M0 0L0 164.015L96.5 234L193 164.015V0L0 0Z" fill="#526BF2"/>
<path d="M42.5748 92.2398C46.8146 82.4562 51.0118 73.2043 54.8147 63.793C57.1826 57.9328 61.0789 55.1983 67.4177 55.2801C79.8983 55.4412 92.3833 55.2383 104.865 55.3577C113.568 55.4409 116.881 58.716 116.933 67.2035C117.021 81.5897 117.092 95.9794 116.836 110.362C116.787 113.12 115.989 116.617 114.192 118.469C104.046 128.929 93.4906 138.992 82.8436 149.416C77.1737 146.326 74.8916 141.691 76.6652 134.933C78.1516 129.27 79.1749 123.486 80.5971 116.85C71.5899 116.85 63.599 116.858 55.6082 116.848C43.2738 116.834 40.6034 114.253 40.8424 101.988C40.9029 98.885 41.8344 95.7985 42.5748 92.2398Z" fill="#FCFDFE"/>
<rect x="125.686" y="54.4971" width="21.5914" height="59.6937" rx="2" fill="white"/>
</svg>
