<svg width="1000" height="1000" viewBox="0 0 1000 1000" fill="none" xmlns="http://www.w3.org/2000/svg">
<g clip-path="url(#clip0_286_47)">
<path d="M77.8367 612.299C74.442 615.801 74.4551 621.37 77.8662 624.857L86.203 633.377C89.6791 636.93 95.3773 636.992 98.9301 633.516C105.452 627.135 115.911 627.25 122.292 633.771C128.673 640.293 128.559 650.753 122.037 657.133C118.484 660.61 118.422 666.308 121.898 669.861L134.987 683.238C138.463 686.791 144.161 686.853 147.714 683.377C154.235 676.996 164.695 677.11 171.076 683.632C177.457 690.153 177.343 700.613 170.821 706.994C167.268 710.47 167.206 716.168 170.682 719.721L183.77 733.098C187.246 736.651 192.944 736.713 196.497 733.237C203.019 726.856 213.479 726.971 219.859 733.492C226.24 740.014 226.126 750.474 219.604 756.854C216.052 760.33 215.989 766.029 219.466 769.582L232.554 782.959C236.03 786.512 241.728 786.574 245.281 783.098C251.803 776.717 262.262 776.831 268.643 783.353C275.024 789.874 274.91 800.334 268.388 806.715C264.835 810.191 264.773 815.889 268.249 819.442L277.776 829.179C281.187 832.665 286.754 832.8 290.33 829.483C299.074 821.37 312.671 821.518 321.236 829.82C322.959 831.49 325.278 832.403 327.677 832.356C330.076 832.309 332.357 831.305 334.013 829.569L516.977 637.734L561.846 593.835L674.96 483.164C678.446 479.752 678.581 474.185 675.264 470.609C667.013 461.716 667.307 447.807 676.033 439.269C676.179 439.126 676.327 438.985 676.476 438.847C678.256 437.196 679.293 434.895 679.352 432.467C679.411 430.039 678.486 427.691 676.788 425.955L667.261 416.218C663.785 412.666 658.087 412.603 654.534 416.08C648.012 422.46 637.553 422.346 631.172 415.824C624.791 409.303 624.905 398.843 631.427 392.462C634.98 388.986 635.042 383.288 631.566 379.735L618.477 366.358C615.001 362.805 609.303 362.743 605.75 366.219C599.229 372.6 588.769 372.486 582.388 365.964C576.007 359.442 576.121 348.983 582.643 342.602C586.196 339.126 586.258 333.428 582.782 329.875L569.694 316.498C566.218 312.945 560.52 312.882 556.967 316.359C550.445 322.739 539.985 322.625 533.605 316.104C527.224 309.582 527.338 299.122 533.86 292.741C537.412 289.265 537.475 283.567 533.999 280.014L520.91 266.637C517.434 263.084 511.736 263.022 508.183 266.498C501.661 272.879 491.202 272.765 484.821 266.243C478.44 259.721 478.554 249.262 485.076 242.881C488.629 239.405 488.691 233.707 485.215 230.154L476.878 221.633C475.18 219.897 472.852 218.921 470.424 218.927C467.996 218.933 465.673 219.92 463.983 221.663C463.841 221.809 463.697 221.954 463.551 222.097C454.678 230.778 440.449 230.623 431.768 221.75C431.625 221.604 431.484 221.456 431.345 221.307C429.693 219.527 427.393 218.49 424.965 218.431C422.538 218.372 420.189 219.297 418.454 220.995L305.34 331.667L260.36 375.675C260.286 375.748 260.213 375.821 260.141 375.896L77.0692 567.844C73.6582 571.42 73.7693 577.078 77.3181 580.518C77.4641 580.659 77.6087 580.803 77.7519 580.949C86.2897 589.676 86.28 603.587 77.8367 612.299Z" stroke="white" stroke-width="18" stroke-linejoin="round"/>
<path d="M618.541 129.326C614.158 131.465 612.276 136.707 614.298 141.145L619.24 151.994C621.301 156.517 626.638 158.513 631.161 156.453C639.464 152.67 649.262 156.335 653.044 164.638C656.827 172.941 653.162 182.738 644.859 186.521C640.336 188.581 638.339 193.918 640.4 198.442L648.159 215.473C650.219 219.996 655.557 221.993 660.08 219.932C668.383 216.149 678.18 219.814 681.963 228.117C685.745 236.42 682.081 246.217 673.778 250C669.254 252.06 667.258 257.398 669.319 261.921L677.077 278.952C679.138 283.475 684.475 285.472 688.999 283.411C697.302 279.629 707.099 283.293 710.882 291.596C714.664 299.899 710.999 309.696 702.696 313.479C698.173 315.54 696.177 320.877 698.237 325.4L705.996 342.431C708.057 346.955 713.394 348.951 717.917 346.89C726.22 343.108 736.018 346.772 739.8 355.075C743.583 363.378 739.918 373.176 731.615 376.958C727.092 379.019 725.095 384.356 727.156 388.88L732.803 401.276C734.826 405.715 740.015 407.735 744.506 405.831C755.488 401.176 768.224 405.939 773.455 416.659C775.619 421.093 780.948 422.958 785.404 420.842L928.04 353.105C932.396 351.037 934.348 345.903 932.466 341.463C927.731 330.293 932.738 317.314 943.847 312.253C944.034 312.168 944.221 312.086 944.407 312.006C946.643 311.059 948.401 309.248 949.282 306.985C950.163 304.722 950.092 302.199 949.085 299.989L943.438 287.593C941.377 283.069 936.04 281.073 931.517 283.133C923.213 286.916 913.416 283.251 909.634 274.948C905.851 266.645 909.516 256.848 917.819 253.066C922.342 251.005 924.338 245.668 922.278 241.144L914.519 224.113C912.458 219.59 907.121 217.594 902.598 219.654C894.295 223.437 884.498 219.772 880.715 211.469C876.932 203.166 880.597 193.369 888.9 189.586C893.423 187.526 895.42 182.188 893.359 177.665L885.6 160.634C883.54 156.111 878.202 154.114 873.679 156.175C865.376 159.958 855.579 156.293 851.796 147.99C848.014 139.687 851.678 129.89 859.981 126.107C864.505 124.047 866.501 118.709 864.44 114.186L856.682 97.1549C854.621 92.6315 849.284 90.6352 844.76 92.6958C836.457 96.4783 826.66 92.8138 822.878 84.5108C819.095 76.2077 822.76 66.4104 831.063 62.6279C835.586 60.5673 837.582 55.2299 835.522 50.7066L830.58 39.8585C829.573 37.6486 827.716 35.9394 825.431 35.1189C823.145 34.2984 820.625 34.4363 818.443 35.5012C818.26 35.5904 818.075 35.6774 817.889 35.7623C806.593 40.9083 793.264 35.9228 788.119 24.627C788.034 24.4414 787.952 24.2544 787.872 24.0661C786.911 21.7999 785.064 20.0261 782.761 19.1579C780.458 18.2896 777.899 18.4025 775.681 19.4704L636.861 86.3144C635.582 86.3262 634.286 86.6121 633.057 87.2016C628.597 89.3418 626.7 94.6808 628.81 99.1553L629.146 99.8664C634.17 110.965 629.427 124.013 618.541 129.326Z" stroke="white" stroke-width="18" stroke-linejoin="round"/>
</g>
<defs>
<clipPath id="clip0_286_47">
<rect width="1000" height="1000" fill="white"/>
</clipPath>
</defs>
</svg>
