<svg width="193" height="234" viewBox="0 0 193 234" fill="none" xmlns="http://www.w3.org/2000/svg">
<path d="M0 234L0 69.9846L96.5 0L193 69.9846V234H0Z" fill="#FF974C"/>
<path d="M73.6079 160.13C73.6101 149.354 73.1543 139.192 73.8373 129.108C74.1154 125.002 75.9241 120.19 78.6641 117.211C87.946 107.118 97.9558 97.7019 107.995 87.7217C122.49 97.3202 109.361 109.62 111.934 121.311C119.039 121.311 126.454 121.31 133.869 121.311C149.488 121.314 155.12 128.403 149.971 143.349C145.843 155.329 140.535 166.956 134.904 178.315C133.527 181.093 128.9 183.688 125.655 183.835C111.955 184.453 98.2068 184.361 84.4884 184.028C76.9969 183.847 73.8649 180.063 73.6345 172.413C73.5177 168.537 73.6101 164.654 73.6079 160.13Z" fill="#FEFDFA"/>
<path d="M64.1246 175.399C64.0191 184.26 64.0191 184.273 55.5051 184.268C42.0863 184.262 44.4059 184.461 44.3154 173.31C44.2017 159.306 44.4073 145.299 44.2283 131.296C44.1751 127.135 45.5452 125.522 49.7636 125.606C66.573 125.94 63.8929 123.506 64.0959 139.242C64.2487 151.09 64.1257 162.942 64.1246 175.399Z" fill="#FEFBF5"/>
</svg>
