<svg width="1000" height="1000" viewBox="0 0 1000 1000" fill="none" xmlns="http://www.w3.org/2000/svg">
<g clip-path="url(#clip0_336_2)">
<path d="M535.771 260.461L684.559 461.365" stroke="white" stroke-width="18" stroke-linecap="round" stroke-dasharray="40 40"/>
<path d="M69.6858 570.649C65.8444 573.655 65.0966 579.173 67.9995 583.093L75.0942 592.673C78.0524 596.667 83.6887 597.507 87.6831 594.549C95.0153 589.119 105.361 590.661 110.791 597.993C116.222 605.325 114.68 615.671 107.347 621.101C103.353 624.059 102.513 629.696 105.471 633.69L116.609 648.73C119.568 652.724 125.204 653.564 129.198 650.606C136.531 645.176 146.876 646.718 152.307 654.05C157.737 661.382 156.195 671.728 148.863 677.158C144.868 680.116 144.028 685.753 146.986 689.747L158.125 704.787C161.083 708.781 166.719 709.621 170.714 706.663C178.046 701.233 188.392 702.775 193.822 710.107C199.252 717.439 197.71 727.785 190.378 733.215C186.383 736.173 185.543 741.81 188.502 745.804L199.64 760.844C202.598 764.838 208.234 765.678 212.229 762.72C219.561 757.29 229.907 758.832 235.337 766.164C240.767 773.496 239.225 783.842 231.893 789.272C227.899 792.23 227.059 797.867 230.017 801.861L238.124 812.808C241.027 816.728 246.524 817.622 250.519 814.824C260.29 807.982 273.739 809.986 281.09 819.38C284.095 823.221 289.614 823.969 293.534 821.066L692.787 525.383C696.707 522.48 697.601 516.983 694.803 512.988C687.844 503.051 690.035 489.313 699.846 482.047C709.657 474.781 723.437 476.691 730.913 486.245C733.919 490.087 739.437 490.835 743.357 487.932L870.529 393.75C874.449 390.847 875.343 385.35 872.545 381.354C865.586 371.417 867.777 357.679 877.588 350.413C877.753 350.291 877.918 350.172 878.084 350.056C880.073 348.663 881.415 346.525 881.805 344.128C882.195 341.731 881.599 339.279 880.154 337.327L872.047 326.38C869.089 322.386 863.453 321.546 859.458 324.504C852.126 329.934 841.78 328.392 836.35 321.06C830.92 313.728 832.462 303.382 839.794 297.952C843.788 294.994 844.628 289.357 841.67 285.363L830.532 270.323C827.573 266.329 821.937 265.489 817.943 268.447C810.611 273.877 800.265 272.335 794.835 265.003C789.404 257.671 790.946 247.325 798.279 241.895C802.273 238.937 803.113 233.3 800.155 229.306L789.016 214.266C786.058 210.272 780.422 209.432 776.428 212.39C769.095 217.82 758.749 216.278 753.319 208.946C747.889 201.614 749.431 191.268 756.763 185.838C760.758 182.88 761.598 177.243 758.639 173.249L747.501 158.209C744.543 154.215 738.907 153.375 734.912 156.333C727.58 161.763 717.234 160.221 711.804 152.889C706.374 145.557 707.916 135.211 715.248 129.781C719.242 126.823 720.082 121.186 717.124 117.192L710.03 107.612C708.584 105.661 706.412 104.376 704.006 104.05C701.599 103.724 699.163 104.384 697.251 105.881C697.091 106.006 696.928 106.129 696.764 106.251C686.789 113.639 672.714 111.541 665.326 101.566C665.205 101.402 665.085 101.236 664.968 101.069C663.575 99.08 661.437 97.7383 659.041 97.3487C656.644 96.959 654.191 97.5543 652.24 98.9995L525.068 193.182C523.117 194.627 521.832 196.799 521.506 199.205C521.18 201.612 521.84 204.047 523.336 205.96C523.462 206.121 523.586 206.283 523.707 206.447C531.095 216.422 528.997 230.498 519.022 237.885C509.047 245.272 494.972 243.175 487.584 233.2C487.463 233.036 487.344 232.87 487.226 232.703C485.833 230.714 483.696 229.372 481.299 228.982C478.902 228.593 476.45 229.188 474.498 230.633L75.245 526.316C73.2935 527.761 72.0089 529.934 71.6828 532.34C71.3568 534.746 72.0169 537.182 73.5134 539.095C73.6386 539.255 73.7622 539.417 73.8841 539.582C81.1499 549.393 79.2399 563.173 69.6858 570.649Z" stroke="white" stroke-width="18" stroke-linejoin="round"/>
<path d="M12.3962 358.954L2.14945 345.155L98.4922 273.614L108.739 287.413L68.3452 317.408L153.486 432.066L137.931 443.617L52.7899 328.959L12.3962 358.954ZM215.88 385.735L144.339 289.392L159.142 278.4L230.683 374.743L215.88 385.735ZM139.943 267.746C137.057 269.888 133.84 270.753 130.289 270.34C126.781 269.897 124.002 268.295 121.953 265.535C119.904 262.775 119.174 259.652 119.763 256.165C120.395 252.647 122.153 249.817 125.038 247.674C127.924 245.532 131.12 244.683 134.629 245.126C138.179 245.539 140.979 247.126 143.028 249.885C145.077 252.645 145.786 255.784 145.155 259.302C144.565 262.789 142.828 265.603 139.943 267.746ZM298.424 327.554C289.392 334.261 280.031 337.904 270.341 338.483C260.65 339.061 251.27 336.912 242.199 332.036C233.129 327.159 225.023 319.912 217.881 310.294C210.615 300.51 206.001 290.539 204.039 280.384C202.088 270.156 202.785 260.524 206.13 251.488C209.486 242.378 215.513 234.595 224.211 228.136C230.985 223.106 238.022 219.827 245.321 218.299C252.62 216.772 259.681 216.977 266.505 218.916C273.329 220.855 279.395 224.525 284.703 229.925L269.9 240.917C265.511 237.365 260.114 235.339 253.71 234.84C247.317 234.267 240.859 236.403 234.336 241.247C228.565 245.532 224.623 250.795 222.51 257.035C220.408 263.202 220.162 269.904 221.774 277.141C223.396 284.305 226.908 291.525 232.311 298.801C237.838 306.244 243.822 311.856 250.262 315.637C256.744 319.386 263.272 321.188 269.846 321.043C276.461 320.866 282.696 318.604 288.55 314.257C292.397 311.4 295.392 308.138 297.535 304.472C299.677 300.805 300.904 296.909 301.215 292.786C301.527 288.662 300.838 284.503 299.15 280.307L313.953 269.315C317.339 275.623 319.073 282.283 319.154 289.293C319.246 296.231 317.589 303.041 314.182 309.723C310.785 316.332 305.533 322.276 298.424 327.554ZM344.175 235.975L330.324 217.846L333.334 215.61L343.626 141.409L361.942 127.808L350.753 206.568L349.498 207.5L344.175 235.975ZM356.458 281.346L261.071 152.889L275.873 141.898L371.261 270.355L356.458 281.346ZM417.676 235.888L344.644 216.164L347.543 198.053L436.493 221.915L417.676 235.888ZM490.451 184.962C481.168 191.855 471.639 195.752 461.864 196.654C452.099 197.482 442.65 195.546 433.516 190.846C424.393 186.073 416.168 178.753 408.84 168.884C401.512 159.016 396.851 148.983 394.858 138.786C392.876 128.516 393.558 118.863 396.903 109.827C400.259 100.718 406.286 92.9338 414.983 86.4753C420.001 82.7492 425.577 79.906 431.712 77.9457C437.846 75.9854 444.318 75.3965 451.127 76.179C457.904 76.9197 464.767 79.4786 471.715 83.8556C478.663 88.2326 485.475 94.9162 492.151 103.907L496.809 110.179L422.544 165.325L413.043 152.529L472.253 108.562C468.217 103.126 463.528 99.0823 458.186 96.4317C452.886 93.7501 447.334 92.6507 441.53 93.1334C435.767 93.585 430.21 95.7981 424.857 99.7726C418.961 104.151 414.947 109.402 412.813 115.528C410.691 121.58 410.203 127.781 411.349 134.13C412.496 140.48 415.041 146.31 418.985 151.62L425.319 160.15C430.722 167.426 436.556 172.663 442.822 175.859C449.099 178.983 455.474 180.185 461.946 179.466C468.387 178.705 474.598 176.105 480.577 171.665C484.466 168.777 487.575 165.625 489.904 162.209C492.243 158.72 493.74 155.014 494.394 151.09C495.017 147.124 494.714 143.003 493.485 138.726L510.766 132.121C512.863 138.089 513.5 144.233 512.678 150.552C511.825 156.829 509.546 162.933 505.841 168.863C502.104 174.752 496.975 180.118 490.451 184.962ZM521.729 9.15607L531.044 21.7007L481.116 58.7752L471.801 46.2306L521.729 9.15607ZM469.213 12.3428L484.016 1.35087L552.203 93.1776C555.308 97.3591 558.243 100.045 561.008 101.235C563.784 102.353 566.398 102.553 568.849 101.835C571.311 101.045 573.63 99.8425 575.804 98.2278C577.435 97.0169 578.711 95.9396 579.632 94.9961C580.522 94.0107 581.234 93.2225 581.768 92.6313L594.653 103.693C593.929 104.814 592.808 106.231 591.289 107.943C589.801 109.696 587.678 111.597 584.918 113.647C580.736 116.752 575.971 118.896 570.621 120.078C565.314 121.23 559.977 120.944 554.61 119.221C549.285 117.466 544.542 113.787 540.381 108.184L469.213 12.3428Z" fill="white"/>
</g>
<defs>
<clipPath id="clip0_336_2">
<rect width="1000" height="1000" fill="white"/>
</clipPath>
</defs>
</svg>
