<svg width="1000" height="1000" viewBox="0 0 1000 1000" fill="none" xmlns="http://www.w3.org/2000/svg">
<path d="M535.771 260.461L684.559 461.365" stroke="white" stroke-width="15" stroke-linecap="round" stroke-dasharray="40 40"/>
<path d="M70.6101 571.83C67.409 574.335 66.7859 578.934 69.2049 582.2L76.2996 591.78C78.7648 595.109 83.4617 595.809 86.7904 593.344C94.7883 587.42 106.074 589.102 111.997 597.1C117.92 605.098 116.238 616.383 108.24 622.307C104.911 624.772 104.211 629.469 106.677 632.797L117.815 647.837C120.28 651.166 124.977 651.866 128.306 649.401C136.304 643.477 147.589 645.159 153.512 653.157C159.435 661.155 157.753 672.44 149.755 678.364C146.427 680.829 145.727 685.526 148.192 688.854L159.33 703.894C161.795 707.223 166.492 707.923 169.821 705.458C177.819 699.534 189.104 701.216 195.027 709.214C200.95 717.212 199.269 728.497 191.271 734.421C187.942 736.886 187.242 741.583 189.707 744.911L200.845 759.951C203.311 763.28 208.007 763.98 211.336 761.515C219.334 755.591 230.619 757.273 236.543 765.271C242.466 773.269 240.784 784.554 232.786 790.478C229.457 792.943 228.757 797.64 231.222 800.968L239.33 811.915C241.749 815.182 246.329 815.927 249.659 813.595C260.083 806.295 274.429 808.433 282.271 818.456C284.776 821.657 289.375 822.28 292.641 819.861L691.895 524.178C695.161 521.759 695.906 517.178 693.574 513.848C686.15 503.247 688.488 488.592 698.953 480.842C709.419 473.091 724.118 475.128 732.094 485.321C734.599 488.522 739.198 489.145 742.464 486.726L869.636 392.544C872.903 390.125 873.648 385.544 871.316 382.215C863.892 371.614 866.229 356.959 876.695 349.208C876.87 349.078 877.047 348.951 877.224 348.827C878.881 347.666 880 345.885 880.324 343.887C880.649 341.89 880.153 339.846 878.949 338.22L870.842 327.273C868.376 323.944 863.679 323.244 860.351 325.709C852.353 331.633 841.068 329.951 835.144 321.953C829.221 313.955 830.903 302.67 838.901 296.746C842.23 294.281 842.93 289.584 840.465 286.256L829.326 271.216C826.861 267.887 822.164 267.187 818.836 269.652C810.838 275.576 799.552 273.894 793.629 265.896C787.706 257.898 789.388 246.613 797.386 240.689C800.714 238.224 801.414 233.527 798.949 230.199L787.811 215.159C785.346 211.83 780.649 211.13 777.32 213.595C769.322 219.519 758.037 217.837 752.114 209.839C746.191 201.841 747.873 190.556 755.871 184.632C759.199 182.167 759.899 177.47 757.434 174.142L746.296 159.102C743.831 155.773 739.134 155.073 735.805 157.538C727.807 163.462 716.522 161.78 710.599 153.782C704.675 145.784 706.357 134.499 714.355 128.575C717.684 126.11 718.384 121.413 715.919 118.085L708.824 108.505C707.62 106.879 705.809 105.808 703.804 105.536C701.799 105.265 699.769 105.815 698.175 107.062C698.005 107.195 697.832 107.327 697.656 107.457C687.016 115.337 672.001 113.1 664.121 102.459C663.991 102.284 663.864 102.107 663.739 101.929C662.579 100.272 660.797 99.1539 658.8 98.8292C656.803 98.5044 654.759 99.0006 653.133 100.205L525.961 194.387C524.335 195.591 523.264 197.402 522.993 199.407C522.721 201.412 523.271 203.442 524.518 205.036C524.652 205.207 524.783 205.38 524.913 205.555C532.793 216.195 530.556 231.21 519.915 239.09C509.274 246.971 494.259 244.733 486.379 234.092C486.25 233.918 486.123 233.741 485.998 233.563C484.837 231.906 483.056 230.788 481.058 230.463C479.061 230.138 477.017 230.634 475.391 231.839L76.1377 527.521C74.5115 528.726 73.441 530.536 73.1693 532.541C72.8975 534.547 73.4477 536.577 74.6947 538.17C74.8281 538.341 74.9598 538.514 75.0896 538.689C82.8404 549.155 80.8028 563.854 70.6101 571.83Z" stroke="white" stroke-width="15" stroke-linejoin="round"/>
</svg>
