<svg width="1000" height="1000" viewBox="0 0 1000 1000" fill="none" xmlns="http://www.w3.org/2000/svg">
<path d="M535.771 260.461L684.559 461.365" stroke="white" stroke-width="18" stroke-linecap="round" stroke-dasharray="40 40"/>
<path d="M69.6858 570.649C65.8444 573.655 65.0966 579.173 67.9995 583.093L75.0942 592.673C78.0524 596.667 83.6887 597.507 87.6831 594.549C95.0153 589.119 105.361 590.661 110.791 597.993C116.222 605.325 114.68 615.671 107.347 621.101C103.353 624.059 102.513 629.696 105.471 633.69L116.609 648.73C119.568 652.724 125.204 653.564 129.198 650.606C136.531 645.176 146.876 646.718 152.307 654.05C157.737 661.382 156.195 671.728 148.863 677.158C144.868 680.116 144.028 685.753 146.986 689.747L158.125 704.787C161.083 708.781 166.719 709.621 170.714 706.663C178.046 701.233 188.392 702.775 193.822 710.107C199.252 717.439 197.71 727.785 190.378 733.215C186.383 736.173 185.543 741.81 188.502 745.804L199.64 760.844C202.598 764.838 208.234 765.678 212.229 762.72C219.561 757.29 229.907 758.832 235.337 766.164C240.767 773.496 239.225 783.842 231.893 789.272C227.899 792.23 227.059 797.867 230.017 801.861L238.124 812.808C241.027 816.728 246.524 817.622 250.519 814.824C260.29 807.982 273.739 809.986 281.09 819.38C284.095 823.221 289.614 823.969 293.534 821.066L692.787 525.383C696.707 522.48 697.601 516.983 694.803 512.988C687.844 503.051 690.035 489.313 699.846 482.047C709.657 474.781 723.437 476.691 730.913 486.245C733.919 490.087 739.437 490.835 743.357 487.932L870.529 393.75C874.449 390.847 875.343 385.35 872.545 381.354C865.586 371.417 867.777 357.679 877.588 350.413C877.753 350.291 877.918 350.172 878.084 350.056C880.073 348.663 881.415 346.525 881.805 344.128C882.195 341.731 881.599 339.279 880.154 337.327L872.047 326.38C869.089 322.386 863.453 321.546 859.458 324.504C852.126 329.934 841.78 328.392 836.35 321.06C830.92 313.728 832.462 303.382 839.794 297.952C843.788 294.994 844.628 289.357 841.67 285.363L830.532 270.323C827.573 266.329 821.937 265.489 817.943 268.447C810.611 273.877 800.265 272.335 794.835 265.003C789.404 257.671 790.946 247.325 798.279 241.895C802.273 238.937 803.113 233.3 800.155 229.306L789.016 214.266C786.058 210.272 780.422 209.432 776.428 212.39C769.095 217.82 758.749 216.278 753.319 208.946C747.889 201.614 749.431 191.268 756.763 185.838C760.758 182.88 761.598 177.243 758.639 173.249L747.501 158.209C744.543 154.215 738.907 153.375 734.912 156.333C727.58 161.763 717.234 160.221 711.804 152.889C706.374 145.557 707.916 135.211 715.248 129.781C719.242 126.823 720.082 121.186 717.124 117.192L710.03 107.612C708.584 105.661 706.412 104.376 704.006 104.05C701.599 103.724 699.163 104.384 697.251 105.881C697.091 106.006 696.928 106.129 696.764 106.251C686.789 113.639 672.714 111.541 665.326 101.566C665.205 101.402 665.085 101.236 664.968 101.069C663.575 99.0799 661.437 97.7383 659.041 97.3486C656.644 96.9589 654.191 97.5543 652.24 98.9994L525.068 193.182C523.117 194.627 521.832 196.799 521.506 199.205C521.18 201.611 521.84 204.047 523.336 205.96C523.462 206.121 523.586 206.283 523.707 206.447C531.095 216.422 528.997 230.498 519.022 237.885C509.047 245.272 494.972 243.175 487.584 233.2C487.463 233.036 487.344 232.87 487.226 232.702C485.833 230.714 483.696 229.372 481.299 228.982C478.902 228.593 476.45 229.188 474.498 230.633L75.245 526.316C73.2935 527.761 72.0089 529.934 71.6828 532.34C71.3568 534.746 72.0169 537.182 73.5134 539.095C73.6386 539.255 73.7622 539.417 73.8841 539.582C81.1499 549.393 79.2399 563.173 69.6858 570.649Z" stroke="white" stroke-width="18" stroke-linejoin="round"/>
</svg>
